#!OML:ASF G:\JayActor3\Patient Classification 1\Patient 1\Session 6\male.ASF
:FULLY-SPECIFIED
:DEGREES
550
root 25.9967 15.2904 -3.37565 191.662 -48.851 -177.496
lowerback 29.3435 -1.90193 3.56122
upperback 4.65535 -2.01439 0.268636
thorax -11.052 -1.34453 -0.936698
lowerneck -4.08813 0.543383 2.23377
upperneck -1.12691 0.577331 0.696246
head 0.328841 0.266612 -0.144887
rclavicle 7.25564e-015 4.39314e-014
rhumerus -36.0188 16.1721 -90.0329
rradius 48.255
rwrist -4.39081
rhand -18.7449 -8.05786
rfingers 7.12502
rthumb 7.55134 -37.9031
lclavicle 7.25564e-015 4.39314e-014
lhumerus -39.6327 -24.0312 89.0956
lradius 48.5367
lwrist 27.0622
lhand -17.6182 7.22545
lfingers 7.12502
lthumb 8.63875 37.0287
rfemur -56.7729 7.72723 16.9587
rtibia 45.2602
rfoot -11.4676 -12.0874
rtoes -4.81578
lfemur -50.7125 4.6196 -22.2191
ltibia 50.1124
lfoot -12.6545 1.08818
ltoes 1.3376
551
root 25.9577 15.33 -3.43239 191.757 -48.9367 -177.364
lowerback 29.3036 -1.92367 3.68454
upperback 4.61283 -1.99482 0.297833
thorax -11.0824 -1.33769 -0.982538
lowerneck -4.35839 0.508398 2.17678
upperneck -1.0214 0.524177 0.664334
head 0.405479 0.241526 -0.145814
rclavicle -9.13416e-014 1.41137e-014
rhumerus -36.092 16.0215 -90.0284
rradius 48.6021
rwrist -4.59426
rhand -18.7744 -7.99116
rfingers 7.12502
rthumb 7.52291 -37.8374
lclavicle -9.13416e-014 1.41137e-014
lhumerus -39.7506 -23.9351 88.9101
lradius 49.216
lwrist 27.2454
lhand -17.6714 7.29258
lfingers 7.12502
lthumb 8.58743 37.0979
rfemur -56.5465 8.0094 16.9081
rtibia 44.8279
rfoot -11.1661 -12.5597
rtoes -4.57031
lfemur -50.396 4.46162 -21.988
ltibia 49.7126
lfoot -12.6967 1.21282
ltoes 1.33314
552
root 25.9193 15.3689 -3.48751 191.88 -48.9415 -177.278
lowerback 29.263 -1.91745 3.73425
upperback 4.5917 -1.96752 0.310589
thorax -11.086 -1.32557 -1.00795
lowerneck -4.46064 0.485672 2.15355
upperneck -1.08323 0.491544 0.615213
head 0.403304 0.223767 -0.157358
rclavicle -1.19271e-015 -2.60408e-014
rhumerus -36.1233 15.9066 -90.0079
rradius 48.9581
rwrist -4.71989
rhand -18.791 -7.91665
rfingers 7.12502
rthumb 7.50686 -37.7634
lclavicle -1.19271e-015 -2.60408e-014
lhumerus -39.8993 -23.7874 88.693
lradius 49.9894
lwrist 27.6026
lhand -17.7876 7.35459
lfingers 7.12502
lthumb 8.47536 37.1645
rfemur -56.3807 8.23448 16.872
rtibia 44.4653
rfoot -10.9019 -12.7269
rtoes -4.5246
lfemur -50.0548 4.31008 -21.7836
ltibia 49.3032
lfoot -12.7581 1.40989
ltoes 1.31775
553
root 25.8813 15.4063 -3.54207 192.055 -48.8695 -177.273
lowerback 29.2045 -1.87633 3.68474
upperback 4.59188 -1.93163 0.30629
thorax -11.0534 -1.30643 -0.999685
lowerneck -4.38659 0.473951 2.16187
upperneck -1.30448 0.47765 0.545573
head 0.323322 0.212759 -0.180032
rclavicle 8.51792e-014 -3.73715e-014
rhumerus -36.1103 15.824 -89.97
rradius 49.3003
rwrist -4.76601
rhand -18.8079 -7.84389
rfingers 7.12502
rthumb 7.49053 -37.6913
lclavicle 8.51792e-014 -3.73715e-014
lhumerus -40.0726 -23.6258 88.4712
lradius 50.8106
lwrist 28.0809
lhand -17.9333 7.41105
lfingers 7.12502
lthumb 8.33469 37.2266
rfemur -56.2089 8.40799 16.8328
rtibia 44.1213
rfoot -10.6404 -12.5853
rtoes -4.58882
lfemur -49.6882 4.18224 -21.6379
ltibia 48.8857
lfoot -12.837 1.65118
ltoes 1.29781
554
root 25.8443 15.4422 -3.59688 192.284 -48.7413 -177.354
lowerback 29.1279 -1.80161 3.53153
upperback 4.60881 -1.88846 0.290429
thorax -10.9898 -1.28046 -0.948258
lowerneck -4.15286 0.467309 2.19502
upperneck -1.65042 0.474188 0.45752
head 0.179621 0.205126 -0.21215
rclavicle -2.11706e-014 5.56597e-015
rhumerus -36.0634 15.7658 -89.9137
rradius 49.6188
rwrist -4.75614
rhand -18.8432 -7.77711
rfingers 7.12502
rthumb 7.45649 -37.6257
lclavicle -2.11706e-014 5.56597e-015
lhumerus -40.2613 -23.4829 88.2686
lradius 51.6312
lwrist 28.6061
lhand -18.0849 7.46481
lfingers 7.12502
lthumb 8.18839 37.2861
rfemur -55.9886 8.53891 16.782
rtibia 43.7656
rfoot -10.3648 -12.233
rtoes -4.60012
lfemur -49.298 4.09311 -21.5619
ltibia 48.4595
lfoot -12.9272 1.89744
ltoes 1.25907
555
root 25.8087 15.4768 -3.65208 192.561 -48.5916 -177.511
lowerback 29.038 -1.70362 3.29664
upperback 4.63513 -1.84222 0.268035
thorax -10.9069 -1.25028 -0.858678
lowerneck -3.78418 0.459753 2.24215
upperneck -2.08054 0.472924 0.362826
head -0.0104515 0.197665 -0.248674
rclavicle -3.56818e-014 6.81831e-014
rhumerus -35.9979 15.7199 -89.8385
rradius 49.9069
rwrist -4.72318
rhand -18.9114 -7.71075
rfingers 7.12502
rthumb 7.39067 -37.5617
lclavicle -3.56818e-014 6.81831e-014
lhumerus -40.4473 -23.3864 88.0985
lradius 52.404
lwrist 29.0939
lhand -18.2157 7.51949
lfingers 7.12502
lthumb 8.06211 37.3457
rfemur -55.7162 8.62074 16.7212
rtibia 43.3932
rfoot -10.0839 -11.8227
rtoes -4.53748
lfemur -48.894 4.04173 -21.5518
ltibia 48.0244
lfoot -13.0132 2.11171
ltoes 1.20641
556
root 25.775 15.5102 -3.70696 192.849 -48.4537 -177.7
lowerback 28.9564 -1.59596 3.03137
upperback 4.66242 -1.79194 0.247355
thorax -10.8265 -1.21736 -0.750734
lowerneck -3.32761 0.444318 2.29656
upperneck -2.54033 0.463699 0.271875
head -0.222671 0.186257 -0.28616
rclavicle -8.16011e-014 -2.38542e-015
rhumerus -35.9239 15.6665 -89.741
rradius 50.1625
rwrist -4.69643
rhand -19.0066 -7.66317
rfingers 7.12502
rthumb 7.29873 -37.5173
lclavicle -8.16011e-014 -2.38542e-015
lhumerus -40.6099 -23.3577 87.9659
lradius 53.0944
lwrist 29.4736
lhand -18.3715 7.55066
lfingers 7.12502
lthumb 7.91176 37.3826
rfemur -55.4056 8.65727 16.6675
rtibia 43.016
rfoot -9.82925 -11.4791
rtoes -4.34121
lfemur -48.49 4.02063 -21.577
ltibia 47.5861
lfoot -13.0795 2.27185
ltoes 1.13811
557
root 25.743 15.5424 -3.76045 193.112 -48.3539 -177.876
lowerback 28.904 -1.49542 2.79424
upperback 4.68476 -1.73985 0.233168
thorax -10.7674 -1.18487 -0.651285
lowerneck -2.84174 0.415625 2.35264
upperneck -2.97449 0.438159 0.196017
head -0.43254 0.167479 -0.320576
rclavicle 7.26558e-014 1.68967e-014
rhumerus -35.853 15.5902 -89.6207
rradius 50.3864
rwrist -4.70438
rhand -19.125 -7.62043
rfingers 7.12502
rthumb 7.18447 -37.4785
lclavicle 7.26558e-014 1.68967e-014
lhumerus -40.7344 -23.4031 87.8662
lradius 53.6814
lwrist 29.6987
lhand -18.5283 7.54995
lfingers 7.12502
lthumb 7.76044 37.3875
rfemur -55.0766 8.64166 16.6478
rtibia 42.652
rfoot -9.60708 -11.2549
rtoes -4.04516
lfemur -48.0981 4.00925 -21.6013
ltibia 47.1551
lfoot -13.1218 2.37943
ltoes 1.05395
558
root 25.7121 15.5731 -3.81146 193.324 -48.3141 -178.001
lowerback 28.8947 -1.41742 2.63744
upperback 4.7002 -1.6896 0.228024
thorax -10.7398 -1.15633 -0.585881
lowerneck -2.37369 0.37236 2.40942
upperneck -3.35354 0.393377 0.139046
head -0.624695 0.140055 -0.349862
rclavicle 2.0773e-014 -6.99722e-014
rhumerus -35.7867 15.4721 -89.4755
rradius 50.5804
rwrist -4.75166
rhand -19.2462 -7.57945
rfingers 7.12502
rthumb 7.06748 -37.4414
lclavicle 2.0773e-014 -6.99722e-014
lhumerus -40.8068 -23.5148 87.7876
lradius 54.1582
lwrist 29.7586
lhand -18.6664 7.52611
lfingers 7.12502
lthumb 7.62716 37.3686
rfemur -54.7465 8.55155 16.6916
rtibia 42.314
rfoot -9.41679 -11.1151
rtoes -3.67205
lfemur -47.7302 3.98058 -21.5947
ltibia 46.7459
lfoot -13.1449 2.44908
ltoes 0.97361
559
root 25.6817 15.6017 -3.85958 193.472 -48.3412 -178.049
lowerback 28.9239 -1.37001 2.58582
upperback 4.70941 -1.64397 0.236118
thorax -10.7411 -1.13373 -0.563336
lowerneck -1.95164 0.317336 2.47147
upperneck -3.67523 0.332003 0.0935398
head -0.793706 0.105083 -0.376371
rclavicle 4.42296e-014 -6.63941e-014
rhumerus -35.731 15.3087 -89.3049
rradius 50.7588
rwrist -4.83488
rhand -19.3461 -7.53477
rfingers 7.12502
rthumb 6.97102 -37.4
lclavicle 4.42296e-014 -6.63941e-014
lhumerus -40.8253 -23.6713 87.7174
lradius 54.5361
lwrist 29.6774
lhand -18.7589 7.49094
lfingers 7.12502
lthumb 7.53787 37.3366
rfemur -54.4332 8.38464 16.8158
rtibia 42.0056
rfoot -9.2426 -11.0075
rtoes -3.2882
lfemur -47.3994 3.91456 -21.5342
ltibia 46.3697
lfoot -13.1564 2.50264
ltoes 0.897611
560
root 25.6514 15.6281 -3.90498 193.566 -48.4328 -178.018
lowerback 28.9734 -1.35609 2.6354
upperback 4.71477 -1.60817 0.25876
thorax -10.759 -1.11914 -0.578488
lowerneck -1.58323 0.256695 2.5364
upperneck -3.95834 0.261742 0.055493
head -0.943502 0.0660045 -0.40071
rclavicle 3.91606e-014 -5.10877e-014
rhumerus -35.6858 15.1031 -89.1115
rradius 50.9282
rwrist -4.94451
rhand -19.4159 -7.45893
rfingers 7.12502
rthumb 6.9037 -37.3264
lclavicle 3.91606e-014 -5.10877e-014
lhumerus -40.8006 -23.8459 87.6463
lradius 54.8344
lwrist 29.506
lhand -18.7991 7.45451
lfingers 7.12502
lthumb 7.49907 37.3016
rfemur -54.1506 8.14769 17.0167
rtibia 41.7238
rfoot -9.07575 -10.8925
rtoes -2.93962
lfemur -47.1166 3.80287 -21.4169
ltibia 46.0317
lfoot -13.1663 2.55475
ltoes 0.830259
561
root 25.6208 15.653 -3.94855 193.621 -48.5726 -177.922
lowerback 29.0138 -1.3697 2.76432
upperback 4.72293 -1.58264 0.29281
thorax -10.7706 -1.11196 -0.622968
lowerneck -1.26286 0.196905 2.60732
upperneck -4.23124 0.190883 0.0179925
head -1.08333 0.0264248 -0.425572
rclavicle -2.79292e-014 3.598e-014
rhumerus -35.6514 14.8645 -88.9046
rradius 51.1023
rwrist -5.05809
rhand -19.4436 -7.37124
rfingers 7.12502
rthumb 6.87692 -37.2395
lclavicle -2.79292e-014 3.598e-014
lhumerus -40.7422 -24.0198 87.5659
lradius 55.0713
lwrist 29.3052
lhand -18.7908 7.40023
lfingers 7.12502
lthumb 7.50708 37.247
rfemur -53.8986 7.86478 17.2753
rtibia 41.4633
rfoot -8.91194 -10.7476
rtoes -2.62629
lfemur -46.8773 3.65461 -21.2542
ltibia 45.7271
lfoot -13.1831 2.61406
ltoes 0.770742
